<?xml version="1.0" encoding="UTF-8"?>
<svg width="256" height="256" viewBox="0 0 45 45" xmlns="http://www.w3.org/2000/svg">
  <defs>
    
                <radialGradient id="darkmagic_fantasy_black" cx="50%" cy="30%" r="50%">
                    <stop offset="0%" stop-color="#5500ff"/>
                    <stop offset="80%" stop-color="#220055"/>
                    <stop offset="100%" stop-color="#000000"/>
                </radialGradient>
                <filter id="glowB_fantasy_black" x="-20%" y="-20%" width="140%" height="140%">
                    <feDropShadow dx="0" dy="0" stdDeviation="3" flood-color="#50f" flood-opacity="0.6"/>
                </filter>
            
  </defs>
  <path d="M 9 39 L 36 39 L 36 36 L 9 36 L 9 39 z M 12 36 L 12 32 L 33 32 L 33 36 L 12 36 z M 11 32 L 34 32 C 34 32 32 23 23 23 C 14 23 11 32 11 32 z M 22.5 24 L 22.5 14 M 22.5 11 A 3.5 3.5 0 1 1 22.5 4 A 3.5 3.5 0 1 1 22.5 11 z" fill="url(#darkmagic_fantasy_black)" stroke="#ffffff" stroke-width="0.2" filter="url(#glowB_fantasy_black)" />
</svg>