<?xml version="1.0" encoding="UTF-8"?>
<svg width="256" height="256" viewBox="0 0 45 45" xmlns="http://www.w3.org/2000/svg">
  <defs>
    
                <linearGradient id="blackGloss_classic_3d_black" x1="0" y1="0" x2="1" y2="1">
                    <stop offset="0%" stop-color="#555555"/>
                    <stop offset="30%" stop-color="#333333"/>
                    <stop offset="100%" stop-color="#000000"/>
                </linearGradient>
                <filter id="shadowBlack_classic_3d_black" x="-20%" y="-20%" width="140%" height="140%">
                    <feDropShadow dx="1.5" dy="2.5" stdDeviation="1.5" flood-color="#000" flood-opacity="0.5"/>
                </filter>
            
  </defs>
  <path d="M 22.5,11.63 L 22.5,6 L 20,6 L 20,3.5 L 25,3.5 L 25,6 L 22.5,6 L 22.5,11.63 M 20,8 L 25,8 M 22.5,11.63 A 8,8 0 0,0 12,20 L 33,20 A 8,8 0 0,0 22.5,11.63 M 12,20 A 8,8 0 0,0 12,28 M 33,20 A 8,8 0 0,1 33,28 M 12,28 L 33,28 M 12,32 L 33,32 M 11.5,35 L 33.5,35 M 11.5,35 L 11.5,39.5 L 33.5,39.5 L 33.5,35 M 15,32 L 15,35 M 30,32 L 30,35" fill="url(#blackGloss_classic_3d_black)" stroke="#111111" stroke-width="0.5" filter="url(#shadowBlack_classic_3d_black)" />
</svg>