<?xml version="1.0" encoding="UTF-8"?>
<svg width="256" height="256" viewBox="0 0 45 45" xmlns="http://www.w3.org/2000/svg">
  <defs>
    
                <linearGradient id="whiteGloss_classic_3d_white" x1="0" y1="0" x2="1" y2="1">
                    <stop offset="0%" stop-color="#ffffff"/>
                    <stop offset="50%" stop-color="#dddddd"/>
                    <stop offset="100%" stop-color="#a0a0a0"/>
                </linearGradient>
                <filter id="shadowWhite_classic_3d_white" x="-20%" y="-20%" width="140%" height="140%">
                    <feDropShadow dx="1.5" dy="2.5" stdDeviation="1.5" flood-color="#000" flood-opacity="0.35"/>
                </filter>
            
  </defs>
  <path d="M 22 9 C 19.8 9 18 10.8 18 13 C 18 15.2 19.8 17 22 17 C 24.2 17 26 15.2 26 13 C 26 10.8 24.2 9 22 9 z M 22 18 C 18 18 16 22 16 25 C 16 30 20 32 20 32 L 25 32 C 25 32 28 30 28 25 C 28 22 26 18 22 18 z M 9 39 L 36 39 L 36 36 L 9 36 L 9 39 z M 12 36 L 12 32 L 33 32 L 33 36 L 12 36 z" fill="url(#whiteGloss_classic_3d_white)" stroke="#4a4a4a" stroke-width="0.5" filter="url(#shadowWhite_classic_3d_white)" />
</svg>