<?xml version="1.0" encoding="UTF-8"?>
<svg width="256" height="256" viewBox="0 0 45 45" xmlns="http://www.w3.org/2000/svg">
  <defs>
    
                <linearGradient id="gold_metal_white" x1="0" y1="0" x2="1" y2="1">
                    <stop offset="0%" stop-color="#fff4b0"/>
                    <stop offset="40%" stop-color="#d4af37"/>
                    <stop offset="80%" stop-color="#a67c00"/>
                    <stop offset="100%" stop-color="#5d4300"/>
                </linearGradient>
                <filter id="metalShadow_metal_white">
                    <feDropShadow dx="0" dy="2" stdDeviation="2" flood-color="#000" flood-opacity="0.6"/>
                </filter>
            
  </defs>
  <path d="M 9 39 L 36 39 L 36 36 L 9 36 L 9 39 z M 12 36 L 12 32 L 33 32 L 33 36 L 12 36 z M 11 14 L 11 9 L 15 9 L 15 11 L 20 11 L 20 9 L 25 9 L 25 11 L 30 11 L 30 9 L 34 9 L 34 14 L 11 14 z M 31 14 C 31 14 34 23 34 32 L 11 32 C 11 23 14 14 14 14 M 14 14 L 31 14" fill="url(#gold_metal_white)" stroke="#b8860b" stroke-width="0.5" filter="url(#metalShadow_metal_white)" />
</svg>