<?xml version="1.0" encoding="UTF-8"?>
<svg width="256" height="256" viewBox="0 0 45 45" xmlns="http://www.w3.org/2000/svg">
  <defs>
    
                <linearGradient id="gold_metal_white" x1="0" y1="0" x2="1" y2="1">
                    <stop offset="0%" stop-color="#fff4b0"/>
                    <stop offset="40%" stop-color="#d4af37"/>
                    <stop offset="80%" stop-color="#a67c00"/>
                    <stop offset="100%" stop-color="#5d4300"/>
                </linearGradient>
                <filter id="metalShadow_metal_white">
                    <feDropShadow dx="0" dy="2" stdDeviation="2" flood-color="#000" flood-opacity="0.6"/>
                </filter>
            
  </defs>
  <path d="M 22.5,11.63 L 22.5,6 L 20,6 L 20,3.5 L 25,3.5 L 25,6 L 22.5,6 L 22.5,11.63 M 20,8 L 25,8 M 22.5,11.63 A 8,8 0 0,0 12,20 L 33,20 A 8,8 0 0,0 22.5,11.63 M 12,20 A 8,8 0 0,0 12,28 M 33,20 A 8,8 0 0,1 33,28 M 12,28 L 33,28 M 12,32 L 33,32 M 11.5,35 L 33.5,35 M 11.5,35 L 11.5,39.5 L 33.5,39.5 L 33.5,35 M 15,32 L 15,35 M 30,32 L 30,35" fill="url(#gold_metal_white)" stroke="#b8860b" stroke-width="0.5" filter="url(#metalShadow_metal_white)" />
</svg>